<svg width="783" height="504" viewBox="0 0 783 504" fill="none" xmlns="http://www.w3.org/2000/svg">
<path d="M607.042 327.848C549.286 316.278 492.383 295.11 441.838 261.135C428.78 252.356 415.81 236.883 391.22 230.683C369.937 227.623 348.068 228.579 326.97 233.628C307.135 238.452 283.033 245.101 267.764 255.507C248.406 268.849 224.626 296.397 219.223 321.407C206.19 299.287 192.412 269.398 164.007 282.049C171.629 278.683 184.999 253.034 188.28 245.349C193.259 233.47 199.328 222.42 206.242 211.941C219.963 191.182 236.794 173.458 255.035 158.129C285.62 132.635 311.456 117.615 347.488 103.764C360.278 98.7933 374.263 94.452 388.767 91.7828C388.72 91.6308 388.72 91.6309 388.825 91.4317C448.703 80.844 530.655 86.0696 564.961 126.252C588.997 154.289 598.497 167.173 626.747 191.069C677.114 233.598 707.23 240.416 757.223 250.063L755.541 340.748C706.288 341.538 657.176 337.951 607.042 327.848Z" fill="#EC1C2D"/>
<path d="M218.553 329.448C214.585 338.679 206.718 346.621 200.805 354.956C191.104 368.801 183.478 384.501 170.751 396.118C166.956 399.463 163.313 402.76 159.272 405.848C152.521 410.944 144.784 415.012 138.279 420.364C135.103 423.017 128.263 434.806 124.143 434.419C119.367 434.068 115.016 430.252 113.857 425.445C110.732 411.083 130.871 401.331 129.853 387.315C129.176 378.692 126.822 368.423 118.335 367.391C94.631 364.583 64.6974 407.207 94.4093 416.483C99.0118 417.888 106.282 419.297 106.346 425.944C106.32 429.619 101.377 432.486 97.7286 433.619C93.7291 434.694 85.9239 434.783 82.1391 432.792C70.4334 426.759 59.3564 414.698 58.6425 400.587C58.238 388.546 64.9522 377.962 73.4749 369.984C78.402 365.454 81.5785 362.802 88.2721 358.057C93.4823 354.44 98.2155 351.971 103.767 348.914C94.7344 345.051 83.0136 347.023 73.3212 345.865C60.8663 344.399 47.4997 348.048 35.3333 349.658C30.841 350.219 22.7004 351.913 19.8904 346.619C17.1275 341.477 24.057 337.492 27.527 335.249C33.6021 331.196 41.098 329.036 48.4104 328.433C53.3011 328.081 56.1317 327.536 62.5896 326.864C69.7029 326.156 78.3625 326.135 85.8061 326.49C90.2303 326.784 94.6545 327.077 99.1731 327.674C101.784 328.03 109.19 327.731 111.067 329.482C102.517 321.803 93.7526 322.024 83.2738 319.943C77.408 318.764 71.4006 317.129 65.5925 315.599C59.0347 313.802 52.1153 312.45 45.8248 309.903C42.5799 308.577 35.6079 304.908 35.3403 300.824C34.3696 286.96 89.3061 303.405 94.6319 303.918C98.2489 304.295 102.217 304.73 105.871 305.762C92.0942 295.206 86.071 291.909 73.998 279.324C71.2877 276.499 62.2816 268.962 63.8276 264.816C66.2699 258.724 75.365 264.401 77.9914 266.419C96.3653 281.047 128.452 294.753 151.715 284.865C158.776 281.84 165.658 277.703 173.285 276.502C185.661 274.494 198.326 280.395 207.406 289.243C214.362 296.083 219.615 304.952 220.774 314.592C221.362 320.243 220.356 325.055 218.553 329.448Z" fill="#EEB48E"/>
</svg>
