<svg width="1349" height="832" viewBox="0 0 1349 832" fill="none" xmlns="http://www.w3.org/2000/svg">
<path d="M473.936 -806.036C364.781 -685.559 169.208 -347.526 152.073 -130.953C117.417 311.02 578.962 682.328 578.962 682.328L630.505 665.117C250.274 203.577 605.867 -460.286 725.381 -675.116L473.936 -806.036Z" fill="#EC1C2D"/>
<path d="M632.033 661.549C647.476 663.161 663.069 668.34 674.9 678.592C681.66 684.402 685.866 691.726 691.431 698.718C693.794 701.447 686.939 712.957 685.243 712.608C673.205 709.317 671.023 704.72 661.041 698.044C653.259 692.568 643.598 689.289 634.74 694.675C625.881 700.061 622.591 711.759 626.272 721.967C628.612 728.772 633.847 734.064 640.281 737.495C646.377 740.584 653.143 745.375 660.449 744.566C670.303 743.601 676.806 734.127 685.157 728.569C688.224 726.548 691.798 725.039 695.363 725.228C699.096 725.588 702.648 728.154 703.139 731.723C703.629 735.291 701.233 738.674 698.841 741.378C692.349 748.814 685.01 755.736 676.997 761.636C670.519 766.355 663.024 770.729 654.887 768.308C649.971 766.753 645.228 764.69 640.312 763.135C630.313 759.515 620.974 759.634 621.921 772.884C622.712 783.586 631.321 792.971 638.243 800.31C646.516 809.015 654.622 817.209 664.606 823.546C665.283 823.889 666.129 824.403 666.465 825.084C666.968 826.275 666.452 827.461 665.937 828.647C658.227 841.34 641.835 826.819 634.566 820.836C625.946 813.488 618.183 804.616 613.144 794.401C610.455 789.292 608.447 783.848 606.949 778.236C605.616 773.475 606.16 767.195 604.146 762.769C599.673 773.612 601.637 787.207 604.803 798.261C605.969 802.513 619.418 827.376 606.18 826.286C603.973 826.104 601.943 824.735 600.083 823.196C592.647 816.704 588.297 804.794 586.821 795.107C584.685 782.021 583.404 767.751 584.663 754.683C570.85 765.645 573.944 789.944 562.844 801.6C558.582 804.803 557.433 797.495 556.77 794.435C556.108 791.375 556.636 787.812 557.163 784.589C560.146 766.776 565.341 748.126 563.91 730.289C562.636 714.661 561.362 699.032 570.607 685.159C583.959 665.194 610.139 659.563 632.033 661.549Z" fill="#EEB48E"/>
</svg>
